<mxfile host="Electron" modified="2024-06-09T12:37:17.978Z" agent="Mozilla/5.0 (Macintosh; Intel Mac OS X 10_15_7) AppleWebKit/537.36 (KHTML, like Gecko) draw.io/22.1.18 Chrome/120.0.6099.199 Electron/28.1.2 Safari/537.36" etag="ZRxNuT0UivDb6iPaWNiE" version="22.1.18" type="device">
  <diagram name="第 1 页" id="aOSU6lLM91-2YGfDK8wN">
    <mxGraphModel dx="852" dy="553" grid="0" gridSize="10" guides="1" tooltips="1" connect="1" arrows="1" fold="1" page="0" pageScale="1" pageWidth="1654" pageHeight="2336" background="none" math="0" shadow="0">
      <root>
        <mxCell id="0" />
        <mxCell id="1" parent="0" />
        <mxCell id="QOfq0dP_4O6yyZA10I6e-2" value="" style="rounded=0;whiteSpace=wrap;html=1;strokeColor=none;fillColor=none;" parent="1" vertex="1">
          <mxGeometry x="152" y="86" width="1100" height="400" as="geometry" />
        </mxCell>
        <mxCell id="-15MKWTmO1kze38XYLvd-5" value="" style="endArrow=classic;html=1;rounded=0;strokeWidth=2;fontSize=22;" parent="1" edge="1">
          <mxGeometry width="50" height="50" relative="1" as="geometry">
            <mxPoint x="286" y="161" as="sourcePoint" />
            <mxPoint x="360" y="161" as="targetPoint" />
          </mxGeometry>
        </mxCell>
        <mxCell id="-15MKWTmO1kze38XYLvd-6" value="" style="endArrow=classic;html=1;rounded=0;strokeWidth=2;fontSize=22;" parent="1" edge="1">
          <mxGeometry width="50" height="50" relative="1" as="geometry">
            <mxPoint x="286" y="222" as="sourcePoint" />
            <mxPoint x="360" y="222" as="targetPoint" />
          </mxGeometry>
        </mxCell>
        <mxCell id="-15MKWTmO1kze38XYLvd-7" value="" style="endArrow=classic;html=1;rounded=0;strokeWidth=2;fontSize=22;" parent="1" edge="1">
          <mxGeometry width="50" height="50" relative="1" as="geometry">
            <mxPoint x="286" y="283" as="sourcePoint" />
            <mxPoint x="360" y="283" as="targetPoint" />
          </mxGeometry>
        </mxCell>
        <mxCell id="-15MKWTmO1kze38XYLvd-8" value="" style="endArrow=classic;html=1;rounded=0;strokeWidth=2;fontSize=22;" parent="1" edge="1">
          <mxGeometry width="50" height="50" relative="1" as="geometry">
            <mxPoint x="286" y="344" as="sourcePoint" />
            <mxPoint x="360" y="344" as="targetPoint" />
          </mxGeometry>
        </mxCell>
        <mxCell id="-15MKWTmO1kze38XYLvd-9" style="edgeStyle=orthogonalEdgeStyle;rounded=0;orthogonalLoop=1;jettySize=auto;html=1;strokeWidth=2;fontSize=22;" parent="1" source="-15MKWTmO1kze38XYLvd-10" edge="1">
          <mxGeometry relative="1" as="geometry">
            <mxPoint x="550" y="161.5" as="targetPoint" />
          </mxGeometry>
        </mxCell>
        <mxCell id="-15MKWTmO1kze38XYLvd-10" value="&lt;font style=&quot;font-size: 22px;&quot; face=&quot;Times New Roman&quot;&gt;Map Task&lt;/font&gt;" style="rounded=0;whiteSpace=wrap;html=1;strokeWidth=2;fontSize=22;" parent="1" vertex="1">
          <mxGeometry x="360" y="137" width="123" height="49" as="geometry" />
        </mxCell>
        <mxCell id="-15MKWTmO1kze38XYLvd-11" value="&lt;font style=&quot;font-size: 22px;&quot; face=&quot;Times New Roman&quot;&gt;Map Task&lt;/font&gt;" style="rounded=0;whiteSpace=wrap;html=1;strokeWidth=2;fontSize=22;" parent="1" vertex="1">
          <mxGeometry x="360" y="198" width="123" height="49" as="geometry" />
        </mxCell>
        <mxCell id="-15MKWTmO1kze38XYLvd-12" value="&lt;font style=&quot;font-size: 22px;&quot; face=&quot;Times New Roman&quot;&gt;Map Task&lt;/font&gt;" style="rounded=0;whiteSpace=wrap;html=1;strokeWidth=2;fontSize=22;" parent="1" vertex="1">
          <mxGeometry x="360" y="259" width="123" height="49" as="geometry" />
        </mxCell>
        <mxCell id="-15MKWTmO1kze38XYLvd-13" value="&lt;font style=&quot;font-size: 22px;&quot; face=&quot;Times New Roman&quot;&gt;Map Task&lt;/font&gt;" style="rounded=0;whiteSpace=wrap;html=1;strokeWidth=2;fontSize=22;" parent="1" vertex="1">
          <mxGeometry x="360" y="320" width="123" height="49" as="geometry" />
        </mxCell>
        <mxCell id="-15MKWTmO1kze38XYLvd-14" value="&lt;font style=&quot;font-size: 22px;&quot; face=&quot;Times New Roman&quot; color=&quot;#ffffff&quot;&gt;Block&lt;/font&gt;" style="rounded=0;whiteSpace=wrap;html=1;fillColor=#219EBC;strokeColor=#90C9E6;fontSize=22;" parent="1" vertex="1">
          <mxGeometry x="551" y="137" width="110" height="49" as="geometry" />
        </mxCell>
        <mxCell id="-15MKWTmO1kze38XYLvd-15" style="edgeStyle=orthogonalEdgeStyle;rounded=0;orthogonalLoop=1;jettySize=auto;html=1;strokeWidth=2;fontSize=22;" parent="1" edge="1">
          <mxGeometry relative="1" as="geometry">
            <mxPoint x="550" y="222.5" as="targetPoint" />
            <mxPoint x="483" y="223" as="sourcePoint" />
          </mxGeometry>
        </mxCell>
        <mxCell id="-15MKWTmO1kze38XYLvd-16" value="&lt;font style=&quot;font-size: 22px;&quot; face=&quot;Times New Roman&quot; color=&quot;#ffffff&quot;&gt;Block&lt;/font&gt;" style="rounded=0;whiteSpace=wrap;html=1;fillColor=#219EBC;strokeColor=#90C9E6;fontSize=22;" parent="1" vertex="1">
          <mxGeometry x="551" y="198" width="110" height="49" as="geometry" />
        </mxCell>
        <mxCell id="-15MKWTmO1kze38XYLvd-17" style="edgeStyle=orthogonalEdgeStyle;rounded=0;orthogonalLoop=1;jettySize=auto;html=1;strokeWidth=2;fontSize=22;" parent="1" edge="1">
          <mxGeometry relative="1" as="geometry">
            <mxPoint x="550" y="283.5" as="targetPoint" />
            <mxPoint x="483" y="284" as="sourcePoint" />
          </mxGeometry>
        </mxCell>
        <mxCell id="-15MKWTmO1kze38XYLvd-18" value="&lt;font style=&quot;font-size: 22px;&quot; face=&quot;Times New Roman&quot; color=&quot;#ffffff&quot;&gt;Block&lt;/font&gt;" style="rounded=0;whiteSpace=wrap;html=1;fillColor=#219EBC;strokeColor=#90C9E6;fontSize=22;" parent="1" vertex="1">
          <mxGeometry x="551" y="259" width="110" height="49" as="geometry" />
        </mxCell>
        <mxCell id="-15MKWTmO1kze38XYLvd-19" style="edgeStyle=orthogonalEdgeStyle;rounded=0;orthogonalLoop=1;jettySize=auto;html=1;strokeWidth=2;fontSize=22;" parent="1" edge="1">
          <mxGeometry relative="1" as="geometry">
            <mxPoint x="550" y="344.5" as="targetPoint" />
            <mxPoint x="483" y="345" as="sourcePoint" />
          </mxGeometry>
        </mxCell>
        <mxCell id="-15MKWTmO1kze38XYLvd-20" value="&lt;font style=&quot;font-size: 22px;&quot; face=&quot;Times New Roman&quot; color=&quot;#ffffff&quot;&gt;Block&lt;/font&gt;" style="rounded=0;whiteSpace=wrap;html=1;fillColor=#219EBC;strokeColor=#90C9E6;fontSize=22;" parent="1" vertex="1">
          <mxGeometry x="551" y="320" width="110" height="49" as="geometry" />
        </mxCell>
        <mxCell id="-15MKWTmO1kze38XYLvd-21" value="&lt;div style=&quot;&quot;&gt;&lt;font face=&quot;Garamond&quot; style=&quot;font-size: 18px;&quot;&gt;ds.map_batches(stateless_fn)&lt;/font&gt;&lt;br&gt;&lt;/div&gt;" style="text;html=1;strokeColor=none;fillColor=none;align=center;verticalAlign=middle;whiteSpace=wrap;rounded=0;" parent="1" vertex="1">
          <mxGeometry x="201.5" y="384" width="440" height="62" as="geometry" />
        </mxCell>
        <mxCell id="-15MKWTmO1kze38XYLvd-22" value="&lt;font style=&quot;font-size: 22px;&quot; face=&quot;Times New Roman&quot; color=&quot;#ffffff&quot;&gt;Block&lt;/font&gt;" style="rounded=0;whiteSpace=wrap;html=1;fillColor=#219EBC;strokeColor=#90C9E6;fontSize=22;" parent="1" vertex="1">
          <mxGeometry x="176" y="137" width="110" height="49" as="geometry" />
        </mxCell>
        <mxCell id="-15MKWTmO1kze38XYLvd-23" value="&lt;font style=&quot;font-size: 22px;&quot; face=&quot;Times New Roman&quot; color=&quot;#ffffff&quot;&gt;Block&lt;/font&gt;" style="rounded=0;whiteSpace=wrap;html=1;fillColor=#219EBC;strokeColor=#90C9E6;fontSize=22;" parent="1" vertex="1">
          <mxGeometry x="176" y="198" width="110" height="49" as="geometry" />
        </mxCell>
        <mxCell id="-15MKWTmO1kze38XYLvd-24" value="&lt;font style=&quot;font-size: 22px;&quot; face=&quot;Times New Roman&quot; color=&quot;#ffffff&quot;&gt;Block&lt;/font&gt;" style="rounded=0;whiteSpace=wrap;html=1;fillColor=#219EBC;strokeColor=#90C9E6;fontSize=22;" parent="1" vertex="1">
          <mxGeometry x="176" y="259" width="110" height="49" as="geometry" />
        </mxCell>
        <mxCell id="-15MKWTmO1kze38XYLvd-25" value="&lt;font style=&quot;font-size: 22px;&quot; face=&quot;Times New Roman&quot; color=&quot;#ffffff&quot;&gt;Block&lt;/font&gt;" style="rounded=0;whiteSpace=wrap;html=1;fillColor=#219EBC;strokeColor=#90C9E6;fontSize=22;" parent="1" vertex="1">
          <mxGeometry x="176" y="320" width="110" height="49" as="geometry" />
        </mxCell>
        <mxCell id="-15MKWTmO1kze38XYLvd-26" value="" style="endArrow=classic;html=1;rounded=0;strokeWidth=2;fontSize=22;" parent="1" edge="1">
          <mxGeometry width="50" height="50" relative="1" as="geometry">
            <mxPoint x="827" y="161" as="sourcePoint" />
            <mxPoint x="901" y="161" as="targetPoint" />
          </mxGeometry>
        </mxCell>
        <mxCell id="-15MKWTmO1kze38XYLvd-27" value="" style="endArrow=classic;html=1;rounded=0;strokeWidth=2;fontSize=22;" parent="1" edge="1">
          <mxGeometry width="50" height="50" relative="1" as="geometry">
            <mxPoint x="827" y="222" as="sourcePoint" />
            <mxPoint x="901" y="222" as="targetPoint" />
          </mxGeometry>
        </mxCell>
        <mxCell id="-15MKWTmO1kze38XYLvd-28" value="" style="endArrow=classic;html=1;rounded=0;strokeWidth=2;fontSize=22;" parent="1" edge="1">
          <mxGeometry width="50" height="50" relative="1" as="geometry">
            <mxPoint x="827" y="283" as="sourcePoint" />
            <mxPoint x="901" y="283" as="targetPoint" />
          </mxGeometry>
        </mxCell>
        <mxCell id="-15MKWTmO1kze38XYLvd-29" value="" style="endArrow=classic;html=1;rounded=0;strokeWidth=2;fontSize=22;" parent="1" edge="1">
          <mxGeometry width="50" height="50" relative="1" as="geometry">
            <mxPoint x="827" y="344" as="sourcePoint" />
            <mxPoint x="901" y="344" as="targetPoint" />
          </mxGeometry>
        </mxCell>
        <mxCell id="-15MKWTmO1kze38XYLvd-30" style="edgeStyle=orthogonalEdgeStyle;rounded=0;orthogonalLoop=1;jettySize=auto;html=1;strokeWidth=2;fontSize=22;" parent="1" edge="1">
          <mxGeometry relative="1" as="geometry">
            <mxPoint x="1115" y="161.5" as="targetPoint" />
            <mxPoint x="1048" y="161.52941176470586" as="sourcePoint" />
          </mxGeometry>
        </mxCell>
        <mxCell id="-15MKWTmO1kze38XYLvd-35" value="&lt;font style=&quot;font-size: 22px;&quot; face=&quot;Times New Roman&quot; color=&quot;#ffffff&quot;&gt;Block&lt;/font&gt;" style="rounded=0;whiteSpace=wrap;html=1;fillColor=#219EBC;strokeColor=#90C9E6;fontSize=22;" parent="1" vertex="1">
          <mxGeometry x="1116" y="137" width="110" height="49" as="geometry" />
        </mxCell>
        <mxCell id="-15MKWTmO1kze38XYLvd-36" style="edgeStyle=orthogonalEdgeStyle;rounded=0;orthogonalLoop=1;jettySize=auto;html=1;strokeWidth=2;fontSize=22;" parent="1" edge="1">
          <mxGeometry relative="1" as="geometry">
            <mxPoint x="1115" y="222.5" as="targetPoint" />
            <mxPoint x="1048" y="223" as="sourcePoint" />
          </mxGeometry>
        </mxCell>
        <mxCell id="-15MKWTmO1kze38XYLvd-37" value="&lt;font style=&quot;font-size: 22px;&quot; face=&quot;Times New Roman&quot; color=&quot;#ffffff&quot;&gt;Block&lt;/font&gt;" style="rounded=0;whiteSpace=wrap;html=1;fillColor=#219EBC;strokeColor=#90C9E6;fontSize=22;" parent="1" vertex="1">
          <mxGeometry x="1116" y="198" width="110" height="49" as="geometry" />
        </mxCell>
        <mxCell id="-15MKWTmO1kze38XYLvd-38" style="edgeStyle=orthogonalEdgeStyle;rounded=0;orthogonalLoop=1;jettySize=auto;html=1;strokeWidth=2;fontSize=22;" parent="1" edge="1">
          <mxGeometry relative="1" as="geometry">
            <mxPoint x="1115" y="283.5" as="targetPoint" />
            <mxPoint x="1048" y="284" as="sourcePoint" />
          </mxGeometry>
        </mxCell>
        <mxCell id="-15MKWTmO1kze38XYLvd-39" value="&lt;font style=&quot;font-size: 22px;&quot; face=&quot;Times New Roman&quot; color=&quot;#ffffff&quot;&gt;Block&lt;/font&gt;" style="rounded=0;whiteSpace=wrap;html=1;fillColor=#219EBC;strokeColor=#90C9E6;fontSize=22;" parent="1" vertex="1">
          <mxGeometry x="1116" y="259" width="110" height="49" as="geometry" />
        </mxCell>
        <mxCell id="-15MKWTmO1kze38XYLvd-40" style="edgeStyle=orthogonalEdgeStyle;rounded=0;orthogonalLoop=1;jettySize=auto;html=1;strokeWidth=2;fontSize=22;" parent="1" edge="1">
          <mxGeometry relative="1" as="geometry">
            <mxPoint x="1115" y="344.5" as="targetPoint" />
            <mxPoint x="1048" y="345" as="sourcePoint" />
          </mxGeometry>
        </mxCell>
        <mxCell id="-15MKWTmO1kze38XYLvd-41" value="&lt;font style=&quot;font-size: 22px;&quot; face=&quot;Times New Roman&quot; color=&quot;#ffffff&quot;&gt;Block&lt;/font&gt;" style="rounded=0;whiteSpace=wrap;html=1;fillColor=#219EBC;strokeColor=#90C9E6;fontSize=22;" parent="1" vertex="1">
          <mxGeometry x="1115" y="320" width="110" height="49" as="geometry" />
        </mxCell>
        <mxCell id="-15MKWTmO1kze38XYLvd-42" value="&lt;font style=&quot;font-size: 22px;&quot; face=&quot;Times New Roman&quot; color=&quot;#ffffff&quot;&gt;Block&lt;/font&gt;" style="rounded=0;whiteSpace=wrap;html=1;fillColor=#219EBC;strokeColor=#90C9E6;fontSize=22;" parent="1" vertex="1">
          <mxGeometry x="717" y="137" width="110" height="49" as="geometry" />
        </mxCell>
        <mxCell id="-15MKWTmO1kze38XYLvd-43" value="&lt;font style=&quot;font-size: 22px;&quot; face=&quot;Times New Roman&quot; color=&quot;#ffffff&quot;&gt;Block&lt;/font&gt;" style="rounded=0;whiteSpace=wrap;html=1;fillColor=#219EBC;strokeColor=#90C9E6;fontSize=22;" parent="1" vertex="1">
          <mxGeometry x="717" y="198" width="110" height="49" as="geometry" />
        </mxCell>
        <mxCell id="-15MKWTmO1kze38XYLvd-44" value="&lt;font style=&quot;font-size: 22px;&quot; face=&quot;Times New Roman&quot; color=&quot;#ffffff&quot;&gt;Block&lt;/font&gt;" style="rounded=0;whiteSpace=wrap;html=1;fillColor=#219EBC;strokeColor=#90C9E6;fontSize=22;" parent="1" vertex="1">
          <mxGeometry x="717" y="259" width="110" height="49" as="geometry" />
        </mxCell>
        <mxCell id="-15MKWTmO1kze38XYLvd-45" value="&lt;font style=&quot;font-size: 22px;&quot; face=&quot;Times New Roman&quot; color=&quot;#ffffff&quot;&gt;Block&lt;/font&gt;" style="rounded=0;whiteSpace=wrap;html=1;fillColor=#219EBC;strokeColor=#90C9E6;fontSize=22;" parent="1" vertex="1">
          <mxGeometry x="717" y="320" width="110" height="49" as="geometry" />
        </mxCell>
        <mxCell id="-15MKWTmO1kze38XYLvd-46" value="&lt;font style=&quot;&quot; face=&quot;Times New Roman&quot;&gt;&lt;font style=&quot;font-size: 22px;&quot;&gt;Actor Pool&lt;/font&gt;&lt;br&gt;&lt;span style=&quot;font-size: 20px;&quot;&gt;(min_size=10,&lt;/span&gt;&lt;br&gt;&lt;span style=&quot;font-size: 20px;&quot;&gt;max_size=20)&lt;/span&gt;&lt;/font&gt;" style="rounded=0;whiteSpace=wrap;html=1;strokeWidth=2;" parent="1" vertex="1">
          <mxGeometry x="900" y="144" width="148" height="226" as="geometry" />
        </mxCell>
        <mxCell id="-15MKWTmO1kze38XYLvd-67" value="&lt;div style=&quot;line-height: 150%;&quot;&gt;&lt;font face=&quot;Garamond&quot; style=&quot;font-size: 20px;&quot;&gt;ds.map_batches(callable_cls,&lt;/font&gt;&lt;/div&gt;&lt;div style=&quot;line-height: 150%;&quot;&gt;&lt;font face=&quot;vr0SJHjQSPAFcwwE9YH6&quot; style=&quot;font-size: 20px;&quot;&gt;&lt;span style=&quot;white-space: pre;&quot;&gt;&#x9;&lt;/span&gt;compute=ActorPoolstrategy(&lt;/font&gt;&lt;/div&gt;&lt;div style=&quot;line-height: 150%;&quot;&gt;&lt;font face=&quot;vr0SJHjQSPAFcwwE9YH6&quot;&gt;&lt;font style=&quot;font-size: 20px;&quot;&gt;&lt;span style=&quot;white-space: pre;&quot;&gt;&#x9;&lt;/span&gt;min_size=10,&amp;nbsp;&lt;/font&gt;&lt;span style=&quot;font-size: 20px; background-color: initial;&quot;&gt;max_size=20,&lt;/span&gt;&lt;/font&gt;&lt;/div&gt;&lt;div style=&quot;line-height: 150%;&quot;&gt;&lt;span style=&quot;font-size: 20px; background-color: initial;&quot;&gt;&lt;font face=&quot;vr0SJHjQSPAFcwwE9YH6&quot;&gt;))&lt;/font&gt;&lt;/span&gt;&lt;/div&gt;" style="text;html=1;strokeColor=none;fillColor=none;align=left;verticalAlign=middle;whiteSpace=wrap;rounded=0;" parent="1" vertex="1">
          <mxGeometry x="840" y="388" width="325" height="80" as="geometry" />
        </mxCell>
      </root>
    </mxGraphModel>
  </diagram>
</mxfile>
